<svg version="1.1" id="Layer_1" xmlns="http://www.w3.org/2000/svg" xmlns:xlink="http://www.w3.org/1999/xlink" x="0px" y="0px"
	 width="100%" viewBox="0 0 1131 1207" enable-background="new 0 0 1131 1207" xml:space="preserve">
<path fill="#010102" opacity="1.000000" stroke="none"
	d="
M892.061096,770.812439
	C891.950989,793.633545 891.769836,816.454651 891.783569,839.275635
	C891.786804,844.615479 890.075134,848.776489 886.157837,852.483154
	C864.011902,873.437744 842.061157,894.599060 819.847168,915.480652
	C817.798218,917.406799 814.359009,918.877563 811.580688,918.852722
	C758.271179,918.375183 704.963806,917.650757 651.656433,916.949463
	C645.563965,916.869324 645.041565,916.249634 645.026123,910.402283
	C644.884155,856.751709 644.734619,803.101074 644.576111,749.450500
	C644.571777,747.982788 644.441711,746.515381 644.303772,743.683167
	C642.139343,745.596130 640.693787,746.732178 639.411072,748.029236
	C624.062927,763.548340 608.635254,778.991333 593.486572,794.703186
	C589.989319,798.330444 586.571960,799.815674 581.405762,799.819336
	C542.918274,799.846802 504.431152,800.295532 465.943634,800.576050
	C456.280609,800.646484 446.613342,800.731506 436.954803,800.511230
	C433.242035,800.426514 432.008514,801.521851 432.183624,805.327271
	C432.742218,817.467041 433.003998,829.621277 433.267151,841.772461
	C433.292572,842.945862 432.877258,844.490967 432.083282,845.265991
	C419.229187,857.813171 406.251099,870.233093 393.362854,882.745544
	C383.322357,892.493469 373.420349,902.384888 363.306061,912.054932
	C362.042328,913.263184 359.862244,914.093384 358.096497,914.111816
	C305.281769,914.660828 252.465866,915.096741 199.649887,915.515808
	C192.728607,915.570740 192.180878,914.973694 192.105774,908.221008
	C190.923340,801.924194 189.749664,695.627197 188.564011,589.330444
	C188.413651,575.849365 187.513672,562.332703 188.214722,548.898010
	C188.966553,534.490173 191.073257,520.144043 192.845901,505.802765
	C193.600311,499.699341 194.917389,493.658325 196.135895,487.620667
	C200.451035,466.239197 211.548752,448.062256 223.948517,430.706177
	C257.729889,383.421997 298.041656,342.541412 345.314362,308.628052
	C349.630951,305.531311 354.007690,302.518402 358.981995,299.313599
	C366.005188,295.632141 372.377838,292.057343 378.808411,288.589996
	C383.918396,285.834778 388.828156,282.088776 394.305817,280.765625
	C405.255890,278.120605 416.473602,275.903931 427.689240,275.172058
	C455.468414,273.359344 483.152191,273.253815 510.440338,280.945251
	C527.633728,285.791321 543.734436,292.622131 558.412292,302.592285
	C562.768311,305.551178 565.903198,310.383118 571.906799,310.242767
	C573.684143,310.201233 575.864136,310.128021 577.156067,309.144836
	C599.397583,292.218872 623.740784,279.636993 651.136536,273.554932
	C674.844543,268.291565 698.679565,268.202576 722.419861,273.445740
	C776.052490,285.290833 818.763611,314.217743 852.119263,357.339233
	C870.099182,380.583405 882.459717,406.601318 888.037659,435.587494
	C889.951965,445.535309 892.227478,455.571411 892.580627,465.628876
	C893.310120,486.399994 892.951721,507.212952 892.873047,528.008057
	C892.728088,566.320312 892.450378,604.632141 892.251282,642.944214
	C892.141357,664.088684 892.036804,685.233276 892.006470,706.377930
	C891.975647,727.856018 892.039001,749.334290 892.061096,770.812439
M387.721710,765.283020
	C387.607361,746.980957 387.525604,728.678650 387.372284,710.376892
	C386.967926,662.113342 386.290497,613.850403 386.241943,565.586670
	C386.225128,548.881958 390.452026,532.979858 400.035126,518.894348
	C420.665527,488.571228 452.186493,477.684204 484.658997,491.277008
	C491.733917,494.238495 498.027527,499.066528 505.051575,503.628448
	C521.879883,520.209045 533.116699,538.130859 532.091553,563.936218
	C530.620789,600.958191 532.947083,638.131287 533.672363,675.239502
	C533.706421,676.981628 533.934631,678.720032 533.998230,679.523560
	C559.596863,679.523560 584.536377,679.564575 609.474182,679.378235
	C610.504333,679.370544 612.373596,677.253967 612.403076,676.083313
	C612.612549,667.771301 612.444031,659.449707 612.848328,650.380676
	C613.183167,647.920410 613.770935,645.464661 613.814331,642.999268
	C614.318542,614.357178 614.543884,585.708252 615.328491,557.074463
	C615.515625,550.244690 615.919373,542.653076 618.926880,536.801331
	C631.998535,511.368469 652.983521,495.228668 681.048035,489.480011
	C698.621521,485.880280 715.109558,488.838226 728.833069,501.905548
	C730.907227,503.880463 734.739807,504.008514 738.221863,505.510376
	C740.105408,507.395569 742.237244,509.092529 743.832153,511.196533
	C754.178650,524.845825 761.890320,539.107666 761.968811,557.299377
	C762.302185,634.612671 763.397095,711.922668 764.210022,789.233887
	C764.308411,798.592651 764.296814,798.659241 773.893005,798.697388
	C793.720703,798.776245 813.548645,798.777588 833.376526,798.808960
	C836.500793,798.813904 839.625061,798.809692 843.039673,798.809692
	C843.039673,788.140137 843.039673,778.035583 843.622925,767.344543
	C843.861023,764.703247 844.318970,762.060791 844.304688,759.420837
	C844.024841,707.595886 843.637085,655.771423 843.381897,603.946411
	C843.141479,555.115784 843.126587,506.283783 842.757690,457.454285
	C842.700439,449.868378 841.842041,442.184357 840.397949,434.730957
	C833.869263,401.034393 815.786438,374.311951 789.600464,352.788513
	C764.429932,332.099609 735.577148,320.380096 703.001526,317.780670
	C673.148804,315.398499 644.551880,319.574127 617.588806,333.111389
	C603.432556,340.218781 591.305420,349.973938 580.321289,361.287231
	C574.990112,366.778198 574.974243,366.585388 569.257629,361.833252
	C563.373779,356.942078 557.648560,351.747467 551.265564,347.588715
	C519.974182,327.201447 485.393982,318.258942 448.179382,317.544281
	C417.510193,316.955353 390.649109,327.140503 365.913849,344.056122
	C351.863098,353.664978 340.924347,366.312408 332.410156,381.918365
	C328.190704,390.174072 323.834015,398.363037 319.780029,406.699219
	C311.041809,424.667511 305.351166,443.280151 305.600952,463.657990
	C306.293121,520.120789 306.455536,576.589905 306.866760,633.056274
	C307.253723,686.191162 307.708466,739.325500 308.059509,792.460571
	C308.079285,795.452576 308.551971,797.038513 312.118500,796.967834
	C336.100555,796.492188 360.085815,796.165894 384.071106,795.880371
	C386.812592,795.847778 387.974731,794.971069 387.880493,792.112549
	C387.595337,783.460632 387.479645,774.803040 387.721710,765.283020
z"/>
<path fill="#336AD8" opacity="1.000000" stroke="none"
	d="
M892.523315,770.832581
	C892.039001,749.334290 891.975647,727.856018 892.006470,706.377930
	C892.036804,685.233276 892.141357,664.088684 892.251282,642.944214
	C892.450378,604.632141 892.728088,566.320312 892.873047,528.008057
	C892.951721,507.212952 893.310120,486.399994 892.580627,465.628876
	C892.227478,455.571411 889.951965,445.535309 888.037659,435.587494
	C882.459717,406.601318 870.099182,380.583405 852.119263,357.339233
	C818.763611,314.217743 776.052490,285.290833 722.419861,273.445740
	C698.679565,268.202576 674.844543,268.291565 651.136536,273.554932
	C623.740784,279.636993 599.397583,292.218872 577.156067,309.144836
	C575.864136,310.128021 573.684143,310.201233 571.906799,310.242767
	C565.903198,310.383118 562.768311,305.551178 558.412292,302.592285
	C543.734436,292.622131 527.633728,285.791321 510.440338,280.945251
	C483.152191,273.253815 455.468414,273.359344 427.689240,275.172058
	C416.473602,275.903931 405.255890,278.120605 394.305817,280.765625
	C388.828156,282.088776 383.918396,285.834778 378.808411,288.589996
	C372.377838,292.057343 366.005188,295.632141 359.228455,299.094727
	C362.795807,287.989868 368.307892,277.781555 375.960724,268.907959
	C404.578522,235.725311 439.266724,211.076385 480.296326,195.539612
	C490.046417,191.847549 500.149811,190.291595 510.686768,190.940887
	C526.783630,191.932785 543.033264,191.398102 559.001221,193.316040
	C585.382812,196.484772 611.089600,202.851791 634.840881,215.388062
	C638.789734,217.472305 642.593140,220.023071 645.974609,222.927689
	C648.447327,225.051682 649.869934,224.634445 652.378357,223.056427
	C662.906372,216.433517 673.265015,209.380127 684.376587,203.880203
	C706.882507,192.740448 730.885498,187.015625 756.125305,187.191635
	C767.913147,187.273834 779.751282,186.939621 791.470093,187.932648
	C800.523804,188.699844 809.600586,190.633636 818.356689,193.135254
	C831.272400,196.825256 844.285889,200.629623 856.544250,206.010529
	C865.389587,209.893234 873.325989,216.075363 881.224243,221.839630
	C897.985229,234.072037 912.068542,248.955673 924.966736,265.266418
	C936.004456,279.224304 944.500244,294.579346 953.328613,309.824219
	C953.909424,310.827209 954.419922,311.906372 954.749878,313.013672
	C958.548706,325.763733 963.310303,338.333099 965.809204,351.336151
	C968.645569,366.094940 970.750977,381.232300 970.894897,396.226929
	C971.376160,446.355530 970.928284,496.494385 970.661255,546.628357
	C970.480225,580.614929 969.995483,614.599854 969.665100,648.585693
	C969.344421,681.574951 969.075989,714.564819 968.713135,747.553589
	C968.649109,753.376831 967.931335,759.203735 968.077026,765.014954
	C968.193726,769.667297 965.943115,770.709534 961.973999,770.696106
	C947.142700,770.646118 932.311035,770.704956 917.479492,770.740479
	C909.314758,770.760010 901.150146,770.814209 892.523315,770.832581
z"/>
<path fill="#336AD7" opacity="1.000000" stroke="none"
	d="
M332.971588,381.443298
	C340.924347,366.312408 351.863098,353.664978 365.913849,344.056122
	C390.649109,327.140503 417.510193,316.955353 448.179382,317.544281
	C485.393982,318.258942 519.974182,327.201447 551.265564,347.588715
	C557.648560,351.747467 563.373779,356.942078 569.257629,361.833252
	C574.974243,366.585388 574.990112,366.778198 580.321289,361.287231
	C591.305420,349.973938 603.432556,340.218781 617.588806,333.111389
	C644.551880,319.574127 673.148804,315.398499 703.001526,317.780670
	C735.577148,320.380096 764.429932,332.099609 789.600464,352.788513
	C815.786438,374.311951 833.869263,401.034393 840.397949,434.730957
	C841.842041,442.184357 842.700439,449.868378 842.757690,457.454285
	C843.126587,506.283783 843.141479,555.115784 843.381897,603.946411
	C843.637085,655.771423 844.024841,707.595886 844.304688,759.420837
	C844.318970,762.060791 843.861023,764.703247 842.861938,767.673340
	C827.439880,768.005249 812.778748,767.977966 798.117981,768.038086
	C795.306091,768.049622 793.091309,767.681519 793.090881,764.156250
	C793.089355,751.186157 793.146301,738.215271 793.019653,725.246216
	C792.788574,701.591553 792.437012,677.938171 792.145264,654.284119
	C791.438354,596.984314 790.718323,539.684753 790.051575,482.384491
	C789.941345,472.910217 786.021423,465.117798 778.915710,459.351654
	C771.869324,453.633667 763.805359,452.137451 755.135376,456.514435
	C744.271179,461.999237 739.057861,471.498627 737.460571,482.753052
	C736.431335,490.005463 737.584167,497.567566 737.759033,504.990875
	C734.739807,504.008514 730.907227,503.880463 728.833069,501.905548
	C715.109558,488.838226 698.621521,485.880280 681.048035,489.480011
	C652.983521,495.228668 631.998535,511.368469 618.926880,536.801331
	C615.919373,542.653076 615.515625,550.244690 615.328491,557.074463
	C614.543884,585.708252 614.318542,614.357178 613.814331,642.999268
	C613.770935,645.464661 613.183167,647.920410 612.198181,650.709717
	C598.406921,651.041321 585.265808,651.040649 572.124695,651.047791
	C563.799011,651.052307 562.987427,650.267395 562.996399,641.936340
	C563.050659,591.700867 563.216980,541.465088 563.029846,491.230560
	C563.009277,485.718475 561.679749,479.951416 559.737976,474.758636
	C555.221680,462.681396 545.300110,455.780334 534.147461,455.944519
	C523.545715,456.100586 513.377930,463.488190 509.679138,475.490509
	C507.630157,482.139435 508.018005,489.517365 507.026001,496.526886
	C506.709686,498.762054 505.488251,500.869171 504.680969,503.034912
	C498.027527,499.066528 491.733917,494.238495 484.658997,491.277008
	C452.186493,477.684204 420.665527,488.571228 400.035126,518.894348
	C390.452026,532.979858 386.225128,548.881958 386.241943,565.586670
	C386.290497,613.850403 386.967926,662.113342 387.372284,710.376892
	C387.525604,728.678650 387.607361,746.980957 387.091217,765.730286
	C372.321014,765.905579 358.181671,765.610168 344.041412,765.370789
	C336.075409,765.235901 336.009460,765.277954 335.963165,757.326599
	C335.665710,706.217896 335.446472,655.108765 335.109009,604.000305
	C334.777130,553.740356 334.297272,503.481293 333.959991,453.221344
	C333.813629,431.411407 333.884766,409.600067 333.784973,387.789673
	C333.775299,385.673004 333.254913,383.558716 332.971588,381.443298
z"/>
<path fill="#F9FAFC" opacity="1.000000" stroke="none"
	d="
M737.990479,505.250610
	C737.584167,497.567566 736.431335,490.005463 737.460571,482.753052
	C739.057861,471.498627 744.271179,461.999237 755.135376,456.514435
	C763.805359,452.137451 771.869324,453.633667 778.915710,459.351654
	C786.021423,465.117798 789.941345,472.910217 790.051575,482.384491
	C790.718323,539.684753 791.438354,596.984314 792.145264,654.284119
	C792.437012,677.938171 792.788574,701.591553 793.019653,725.246216
	C793.146301,738.215271 793.089355,751.186157 793.090881,764.156250
	C793.091309,767.681519 795.306091,768.049622 798.117981,768.038086
	C812.778748,767.977966 827.439880,768.005249 842.570312,767.966614
	C843.039673,778.035583 843.039673,788.140137 843.039673,798.809692
	C839.625061,798.809692 836.500793,798.813904 833.376526,798.808960
	C813.548645,798.777588 793.720703,798.776245 773.893005,798.697388
	C764.296814,798.659241 764.308411,798.592651 764.210022,789.233887
	C763.397095,711.922668 762.302185,634.612671 761.968811,557.299377
	C761.890320,539.107666 754.178650,524.845825 743.832153,511.196533
	C742.237244,509.092529 740.105408,507.395569 737.990479,505.250610
z"/>
<path fill="#F9FAFB" opacity="1.000000" stroke="none"
	d="
M332.690857,381.680847
	C333.254913,383.558716 333.775299,385.673004 333.784973,387.789673
	C333.884766,409.600067 333.813629,431.411407 333.959991,453.221344
	C334.297272,503.481293 334.777130,553.740356 335.109009,604.000305
	C335.446472,655.108765 335.665710,706.217896 335.963165,757.326599
	C336.009460,765.277954 336.075409,765.235901 344.041412,765.370789
	C358.181671,765.610168 372.321014,765.905579 386.879333,766.162598
	C387.479645,774.803040 387.595337,783.460632 387.880493,792.112549
	C387.974731,794.971069 386.812592,795.847778 384.071106,795.880371
	C360.085815,796.165894 336.100555,796.492188 312.118500,796.967834
	C308.551971,797.038513 308.079285,795.452576 308.059509,792.460571
	C307.708466,739.325500 307.253723,686.191162 306.866760,633.056274
	C306.455536,576.589905 306.293121,520.120789 305.600952,463.657990
	C305.351166,443.280151 311.041809,424.667511 319.780029,406.699219
	C323.834015,398.363037 328.190704,390.174072 332.690857,381.680847
z"/>
<path fill="#FAFBFC" opacity="1.000000" stroke="none"
	d="
M504.866272,503.331665
	C505.488251,500.869171 506.709686,498.762054 507.026001,496.526886
	C508.018005,489.517365 507.630157,482.139435 509.679138,475.490509
	C513.377930,463.488190 523.545715,456.100586 534.147461,455.944519
	C545.300110,455.780334 555.221680,462.681396 559.737976,474.758636
	C561.679749,479.951416 563.009277,485.718475 563.029846,491.230560
	C563.216980,541.465088 563.050659,591.700867 562.996399,641.936340
	C562.987427,650.267395 563.799011,651.052307 572.124695,651.047791
	C585.265808,651.040649 598.406921,651.041321 611.971924,651.084961
	C612.444031,659.449707 612.612549,667.771301 612.403076,676.083313
	C612.373596,677.253967 610.504333,679.370544 609.474182,679.378235
	C584.536377,679.564575 559.596863,679.523560 533.998230,679.523560
	C533.934631,678.720032 533.706421,676.981628 533.672363,675.239502
	C532.947083,638.131287 530.620789,600.958191 532.091553,563.936218
	C533.116699,538.130859 521.879883,520.209045 504.866272,503.331665
z"/>
</svg>
